<?xml version="1.0" encoding="UTF-8"?>
<svg id="Layer_2" data-name="Layer 2" xmlns="http://www.w3.org/2000/svg" viewBox="0 0 200 68.83">
  <defs>
    <style>
      .cls-1 {
        fill: #fff;
      }
    </style>
  </defs>
  <g id="Layer_1-2" data-name="Layer 1">
    <path class="cls-1" d="M200,68.83H22.21s-2.27-3.09-2.27-3.09l-6.44-8.97-5.22-7.29-6.6-9.17-1.68-2.45V0s177.87,0,177.87,0l3.63,5.04,11.88,16.56,5.46,7.59,1.15,1.69v37.95ZM82.25,2.73c-.54-.14-.79-.22-1.33-.22H.95c-.18.7-.18,1.32-.04,2.03h79.96c.56-.66.91-1.14,1.37-1.81ZM115.53,4.54c-.28-.96-.75-1.51-1.46-2.02h-28.27c-.59.58-.99,1.05-1.4,2.02h31.13ZM177.65,4.54c-.47-1.07-.75-1.4-1.31-2.02h-57.12c-.64,0-1.01.08-1.52.23l1.36,1.8h58.59ZM35.31,33.58h25.29s18.93-26.96,18.93-26.96c.28-.39.6-.63.27-1.01H.82s0,27.97,0,27.97h28.46s.09-4.09.09-4.09c1.46-.2,2.89-.15,4.38.02.89.11,1.49.82,1.77,1.45.39.88.13,1.46-.22,2.62ZM106.12,13.22c6.71,1.6,11.81,7.8,13.27,14.43l.79,5.94,16.22-.02-15.77-22.17-4.15-5.79h-33s-19.59,27.92-19.59,27.92l15.93.04.32-2.37.41-2.6c.09-.6.31-1.36.5-1.99,2.04-6.97,7.38-12.3,14.59-13.66,3.04-.57,7.31-.5,10.47.25ZM169.36,32.61c.13.39.38.85.67.95.33.12,1.15.08,1.27-.24l.86-2.29c.18-.48.37-1.42.92-1.56.72-.18,1.46-.1,2.27-.03l.09,4.15,23.24-.03-20.02-27.94-58.78.02,5.22,7.49,14.58,20.47h25.81s.05-3.57.05-3.57c-.03-.13.32-.65.53-.64h1.97c.43.66.73,1.38.96,2.11l.36,1.12ZM98.6,29.44c1.13-.37,1.95-.32,3.01.06,1.62.57,2.69,2.18,2.77,4.08l11,.02c.12-8.27-3.92-18.94-13.28-19.93-2.49-.26-4.72-.16-7.1.62-5.2,1.7-8.2,6.49-9.51,11.55-.29,1.12-.27,2.18-.54,3.32l-.3,1.29-.03,3.15h10.97c.15-1.99,1.22-3.57,3.01-4.15ZM33.48,31.72c-.23-.73-1.5-.82-1.99-.37-.36.34-.24,1.55.14,1.9.87.36,2.18-.49,1.85-1.54ZM102.27,33.54c-.18-1.41-.65-1.74-1.34-2.39-.5,0-1.31-.08-1.74.06-.92.31-1.4,1.23-1.46,2.34h4.53ZM103.65,53.86c3.34-.84,6.02-2.92,7.84-5.78,1.69-2.66,2.26-4.04,3.08-7.09.29-1.06.37-2.08.51-3.2.15-1.18.38-2.32.29-3.54h-11c-.06,1.87-1.13,3.48-2.76,4.09-1.16.43-2.11.45-3.25.02-1.7-.64-2.78-2.29-2.74-4.11h-10.98c-.17,2.91.15,2.67.4,5.01.3,2.77,1.18,5.35,2.43,7.79,3.2,6.24,9.65,8.46,16.19,6.81ZM125.06,55.32l-3.39,4.82c-.62,1.08-1.5,1.9-2.01,3.18l28.53-.02c2.29,0,5.83-.39,8.06-.79l2.44-.44,2.29-.52,2.03-.53c14.43-3.79,27.48-13.48,35.9-25.82.15-.22.29-.62.16-.77-.1-.12-.46-.18-.71-.18h-22.94s-.05,4.05-.05,4.05c-.53.31-1.51.22-1.96-.16l-.07-3.9c-.73-.04-.77.49-.93.93l-.83,2.31c-.19.54-.56.92-1.09.99s-.96-.18-1.13-.63l-1.16-3.13c-.06-.16-.29-.4-.42-.48-.1-.06-.47.18-.47.34l-.05,3.69c-.41.43-1.37.3-1.71-.15l-.06-3.85h-25.79s-14.65,21.07-14.65,21.07ZM34.22,38.01l-1.48-2.37c-.19-.31-1.2-.75-1.3-.2-.16.89-.08,1.9-.19,2.78-.32.44-1.8.36-1.83-.24l-.18-3.74-28.58.02,12.41,17.35,8.43,11.71,58.96-.03-19.88-29.06h-26.43s2.43,3.87,2.43,3.87c-.7.51-1.93.6-2.37-.1ZM118.88,41.48c-1.84,6.21-6.52,11.2-12.68,13.03-3.1.93-8.36.94-11.28.36-7.75-1.56-13.27-8.16-14.55-15.76-.28-1.65-.54-3.13-.49-4.86h-16.04s3.29,4.87,3.29,4.87l14.48,21.11,2.17,3.11h32.45s20.22-29.06,20.22-29.06l-16.36-.03c-.12.49-.17,1-.19,1.51l-.48,3.66c-.08.58-.33,1.33-.55,2.06ZM102.1,34.24l-4.42.04c.08.85.4,1.55,1.07,2.14.54.48,1.8.48,2.32.09.71-.52,1.33-1.34,1.03-2.27ZM150.26,64.25l-2.99.07-28.41.02c-.55.61-.92,1.03-1.22,1.94h81.48s.02-29.21.02-29.21c-.51.25-.8.49-1.02.84-1.55,2.2-3.28,4.12-5.09,6.1-1.56,1.7-5.29,5.15-7.1,6.49l-1.93,1.43c-7.28,5.39-15.61,9.14-24.5,10.93l-2.78.56c-.4.08-6.32.84-6.45.85ZM82.46,66.27c-.47-.87-.8-1.3-1.34-1.94H22.35c.37.8.78,1.36,1.41,1.95h58.71ZM114.18,66.28c.55-.76.88-1.21,1.23-1.95h-30.88c.4.75.78,1.29,1.27,1.95h28.37Z"/>
  </g>
</svg>