<?xml version="1.0" encoding="UTF-8"?>
<svg id="Layer_2" data-name="Layer 2" xmlns="http://www.w3.org/2000/svg" viewBox="0 0 865 300">
  <defs>
    <style>
      .cls-1 {
        fill: #fff;
      }
    </style>
  </defs>
  <g id="Layer_2-2" data-name="Layer 2">
    <path class="cls-1" d="M864.96,134.66c-31.89-44.68-63.78-89.36-95.67-134.04C512.86.41,256.43.2,0,0v164.95c32.02,44.81,64.04,89.62,96.06,134.43,256.31.2,512.63.41,768.94.61-.01-55.11-.03-110.23-.04-165.34ZM369.45,287.73l-5.83-8.44,136.59-.12-6.02,8.56h-124.73ZM360.19,274.33l-85.07-123.09h69.49c.23,27.63,8.09,49.68,23.6,66.12,15.74,16.69,37.01,25.04,63.8,25.04s48.22-8.34,64.03-25.04c15.58-16.44,23.48-38.49,23.71-66.12h70.43l-86.5,122.97-143.51.12ZM154.57,148.76c.63-1.89.95-3.81.95-5.75,0-4.49-1.47-8.07-4.42-10.75-2.95-2.68-7.17-4.02-12.67-4.02h-13.23v20.51H10.38V24.97h336.45l-85.55,123.79h-106.71ZM133.81,148.76v-12.18h6.17c1.5,0,2.7.26,3.59.77.89.52,1.55,1.15,1.99,1.91.43.75.72,1.5.86,2.23.14.74.21,1.34.21,1.82,0,.83-.2,1.76-.59,2.77-.4,1.01-1.08,1.89-2.05,2.62-.03.02-.06.04-.09.06h-10.09ZM360.67,24.97h144.58l85.01,123.79h-70.5c-.23-27.8-8.11-49.88-23.66-66.25-15.78-16.61-37.14-24.91-64.09-24.91s-48.16,8.3-63.86,24.91c-15.47,16.36-23.31,38.45-23.54,66.25h-69.49l85.55-123.79ZM496.54,12.27l5.31,7.74h-137.75l5.35-7.74h127.09ZM484.86,153.82c0,27.26-4.44,47.83-13.31,61.69-8.87,13.86-22.07,20.79-39.59,20.79s-30.97-7.13-39.67-21.4c-8.58-14.06-12.92-35.28-13.05-63.65h30.89c.11,2.71.68,5.27,1.7,7.67,1.15,2.7,2.74,5.07,4.78,7.11,2.04,2.05,4.4,3.64,7.09,4.79,2.69,1.15,5.58,1.73,8.66,1.73s5.91-.57,8.6-1.73c2.69-1.15,5.07-2.75,7.15-4.79,2.08-2.04,3.7-4.42,4.86-7.11,1.04-2.4,1.61-4.96,1.73-7.67h30.15c0,.85.01,1.71.01,2.58ZM419.01,150.22c0-2.66.59-5.05,1.78-7.17,1.19-2.12,2.79-3.81,4.81-5.06,2.02-1.25,4.29-1.88,6.82-1.88s4.81.63,6.82,1.88,3.62,2.94,4.81,5.06c1.19,2.12,1.78,4.52,1.78,7.17s-.57,4.93-1.72,7.06c-1.15,2.12-2.72,3.81-4.72,5.06-2,1.25-4.24,1.88-6.73,1.88s-4.89-.63-6.94-1.88c-2.06-1.25-3.69-2.94-4.89-5.06-1.21-2.12-1.81-4.48-1.81-7.06ZM454.67,148.76c-.16-2.48-.72-4.85-1.7-7.11-1.17-2.7-2.79-5.09-4.86-7.18-2.08-2.08-4.46-3.72-7.15-4.91-2.69-1.19-5.56-1.79-8.6-1.79s-5.97.6-8.66,1.79c-2.69,1.19-5.05,2.83-7.09,4.91-2.04,2.08-3.63,4.48-4.78,7.18-.96,2.26-1.51,4.63-1.67,7.11h-30.92c.12-28.55,4.47-49.81,13.05-63.79,8.7-14.18,21.92-21.27,39.67-21.27s31.71,7.23,40.19,21.68c8.01,13.66,12.23,34.79,12.67,63.38h-30.15ZM604.11,151.24h85.28l-.03,20.83h8.31c.07-6.75.13-13.51.2-20.26l13.98,11.53c4.6-4.03,9.2-8.07,13.8-12.1h.08v20.83h8.6c-.02-6.94-.04-13.89-.05-20.83h120.01c-5.4,11.28-11.81,21.98-19.11,31.86-51.1,69.17-135.03,86.69-180.59,90.98l-136.97.12,86.49-122.96ZM854.58,148.76h-120.31l-.06-22.3c-7.46,7.23-14.91,14.46-22.37,21.69l-22.42-21.69-.03,22.3h-85.32l-85.01-123.79h254.83l80.68,113.04v10.76ZM770.36,20h-254.7l-6.3-9.18,254.59.2,6.41,8.97ZM356.69,10.7l-6.43,9.3H10.38v-9.58l346.31.28ZM10.38,161.6v-10.36h114.83v20.83h8.6v-13.93h5.75l9.2,13.93h10.03l-10.14-15.9c2.19-1.26,3.83-2.9,4.9-4.93h107.74l85.08,123.1-255.26.22-61.48-86.04-19.23-26.92ZM94.64,279.52l255.15-.22,6.82,9.87-255.22-.2-6.75-9.45ZM507,289.29l7.13-10.13,140.58-.12h.23c29.19-2.75,56.99-9.06,82.64-18.78,43.08-16.32,77.26-41.29,101.58-74.21,5.69-7.7,10.85-15.88,15.43-24.44l.03,127.96-347.61-.28Z"/>
  </g>
</svg>